<svg xmlns="http://www.w3.org/2000/svg" viewBox="0 0 48 48" xmlns:xlink="http://www.w3.org/1999/xlink" xml:space="preserve" width="100%" height="100%"><path xmlns="http://www.w3.org/2000/svg" d="M20.152 22c1.2 0 2.172.9 2.15 2 0 1.1-.948 2-2.15 2-1.18 0-2.152-.9-2.152-2s.95-2 2.152-2m7.696 0C29.05 22 30 22.9 30 24s-.95 2-2.152 2c-1.18 0-2.15-.9-2.15-2s.948-2 2.15-2m9.934-18C40.108 4 42 5.932 42 8.326V46l-4.422-3.99-2.49-2.352-2.634-2.5 1.092 3.886H10.218C7.892 41.044 6 39.112 6 36.718V8.326C6 5.932 7.892 4 10.218 4zm-7.94 27.426c4.546-.146 6.296-3.192 6.296-3.192 0-6.762-2.964-12.244-2.964-12.244-2.96-2.266-5.78-2.204-5.78-2.204l-.288.336c3.498 1.092 5.122 2.668 5.122 2.668a16.6 16.6 0 0 0-6.192-2.016 17 17 0 0 0-4.154.04c-.124 0-.228.022-.35.042-.72.064-2.47.336-4.67 1.324-.76.356-1.214.61-1.214.61s1.708-1.66 5.41-2.752l-.206-.252s-2.818-.062-5.78 2.206c0 0-2.962 5.48-2.962 12.242 0 0 1.728 3.044 6.274 3.192 0 0 .76-.944 1.38-1.742-2.614-.8-3.6-2.48-3.6-2.48s.204.148.574.358c.02.02.04.042.082.062.062.044.124.064.186.106.514.294 1.028.524 1.5.714.844.336 1.852.672 3.026.904a14.2 14.2 0 0 0 5.328.02 13.4 13.4 0 0 0 2.982-.902c.72-.274 1.522-.674 2.366-1.24 0 0-1.028 1.722-3.724 2.5.618.798 1.36 1.7 1.36 1.7z"></path></svg>